<?xml version="1.0" encoding="UTF-8" standalone="no"?>
<svg
   xmlns:dc="http://purl.org/dc/elements/1.1/"
   xmlns:cc="http://creativecommons.org/ns#"
   xmlns:rdf="http://www.w3.org/1999/02/22-rdf-syntax-ns#"
   xmlns:svg="http://www.w3.org/2000/svg"
   xmlns="http://www.w3.org/2000/svg"
   id="svg6"
   version="1.1"
   width="40"
   viewBox="0 0 40 40"
   height="40">
  <metadata
     id="metadata12">
    <rdf:RDF>
      <cc:Work
         rdf:about="">
        <dc:format>image/svg+xml</dc:format>
        <dc:type
           rdf:resource="http://purl.org/dc/dcmitype/StillImage" />
        <dc:title></dc:title>
      </cc:Work>
    </rdf:RDF>
  </metadata>
  <defs
     id="defs10" />
  <g
     style="display:inline"
     id="layer1">
    <path
       d="M 20 3.5 A 16.5 16.5 0 0 0 3.5 20 A 16.5 16.5 0 0 0 20 36.5 A 16.5 16.5 0 0 0 36.5 20 A 16.5 16.5 0 0 0 20 3.5 z M 19.994141 8.4628906 C 23.228455 8.4628906 25.851562 11.08404 25.851562 14.318359 C 25.851562 17.552649 23.228455 20.173828 19.994141 20.173828 C 16.759826 20.173828 14.138672 17.552649 14.138672 14.318359 C 14.138672 11.08404 16.759826 8.4628906 19.994141 8.4628906 z M 13.113281 22.517578 L 26.876953 22.517578 C 28.210715 22.517578 29.298409 23.566033 29.361328 24.884766 L 29.365234 25.005859 L 29.365234 25.445312 C 29.365234 27.644627 28.228673 29.291603 26.484375 30.353516 C 24.769158 31.397744 22.461927 31.886719 19.994141 31.886719 C 17.526357 31.886719 15.221109 31.397744 13.505859 30.353516 C 11.814401 29.323781 10.69526 27.742726 10.628906 25.642578 L 10.625 25.445312 L 10.625 25.005859 C 10.625 23.671481 11.675841 22.582387 12.994141 22.519531 L 13.113281 22.517578 z "
       style="fill:#000000;fill-rule:evenodd;stroke-width:0.9708"
       id="path23" />
  </g>
  <g
     id="layer2" />
</svg>
